In a world ravaged by a virus infection, turning its victims into the Undead, Alice (Jovovich), continues on her journey to find survivors and lead them to safety. Her deadly battle with the Umbrella Corporation reaches new heights, but Alice gets some unexpected help from an old friend. A new lead that promises a safe haven from the Undead takes them to Los Angeles, but when they arrive the city is overrun by thousands of Undead - and Alice and her comrades are about to step into a deadly trap. 


Milla Jovovich 	... 	Alice 
 	Ali Larter 	... 	Claire Redfield 
 	Kim Coates 	... 	Bennett 
 	Shawn Roberts 	... 	Albert Wesker 
 	Sergio Peris-Mencheta 	... 	Angel Ortiz 
 	Spencer Locke 	... 	K-Mart 
 	Boris Kodjoe 	... 	Luther West 
 	Wentworth Miller 	... 	Chris Redfield 
 	Sienna Guillory 	... 	Jill Valentine 
 	Kacey Barnfield 	... 	Crystal 
 	Norman Yeung 	... 	Kim Yong 
 	Fulvio Cecere 	... 	Wendell 
 	Ray Olubowale 	... 	Axeman 
 	Christopher Kano 	... 	Sniper #1 
 	Tatsuya Goke 	... 	Sniper #2

General
Complete name                    : Resident.Evil.Afterlife.2010.BRRip.x264[HinDi]-[SnowDoN-IcTv].mkv
Format                           : Matroska
File size                        : 442 MiB
Duration                         : 1h 36mn
Overall bit rate                 : 638 Kbps
Movie name                       : Resident.Evil.Afterlife.2010.BRRip.x264[HinDi]-[SnowDoN-IcTv]
Encoded date                     : UTC 2011-01-17 09:43:28
Writing application              : mkvmerge v4.4.0 ('Die Wiederkehr') built on Oct 31 2010 21:52:48
Writing library                  : libebml v1.0.0 + libmatroska v1.0.0

Video
ID                               : 1
Format                           : AVC
Format/Info                      : Advanced Video Codec
Format profile                   : High@L5.1
Format settings, CABAC           : Yes
Format settings, ReFrames        : 5 frames
Muxing mode                      : Container profile=Unknown@5.1
Codec ID                         : V_MPEG4/ISO/AVC
Duration                         : 1h 36mn
Bit rate                         : 497 Kbps
Nominal bit rate                 : 509 Kbps
Width                            : 720 pixels
Height                           : 304 pixels
Display aspect ratio             : 2.35:1
Frame rate                       : 23.976 fps
Resolution                       : 8 bits
Colorimetry                      : 4:2:0
Scan type                        : Progressive
Bits/(Pixel*Frame)               : 0.095
Stream size                      : 344 MiB (78%)
Title                            : Resident.Evil.Afterlife.2010.BRRip.x264[HinDi]-[SnowDoN-IcTv]
Writing library                  : x264 core 98 r1649 20cbe10
Encoding settings                : cabac=1 / ref=5 / deblock=1:1:2 / analyse=0x3:0x113 / me=umh / subme=9 / psy=1 / psy_rd=1.00:0.00 / mixed_ref=1 / me_range=24 / chroma_me=1 / trellis=1 / 8x8dct=1 / cqm=0 / deadzone=21,11 / fast_pskip=1 / chroma_qp_offset=-2 / threads=16 / sliced_threads=0 / nr=0 / decimate=1 / interlaced=0 / constrained_intra=0 / bframes=3 / b_pyramid=2 / b_adapt=2 / b_bias=0 / direct=3 / weightb=1 / weightp=2 / keyint=250 / keyint_min=25 / scenecut=40 / intra_refresh=0 / rc_lookahead=60 / rc=2pass / mbtree=1 / bitrate=509 / ratetol=1.0 / qcomp=0.60 / qpmin=10 / qpmax=51 / qpstep=4 / cplxblur=20.0 / qblur=0.5 / ip_ratio=1.40 / aq=1:1.00

Audio
ID                               : 2
Format                           : MPEG Audio
Format version                   : Version 1
Format profile                   : Layer 3
Format_Settings_Mode             : Joint stereo
Codec ID                         : A_MPEG/L3
Codec ID/Hint                    : MP3
Duration                         : 1h 36mn
Bit rate mode                    : Constant
Bit rate                         : 128 Kbps
Channel(s)                       : 2 channels
Sampling rate                    : 48.0 KHz
Stream size                      : 88.7 MiB (20%)
Title                            : Resident.Evil.Afterlife.2010.BRRip.x264[HinDi]-[SnowDoN-IcTv]
Language                         : Hindi

Text
ID                               : 3
Format                           : UTF-8
Codec ID                         : S_TEXT/UTF8
Codec ID/Info                    : UTF-8 Plain Text
Title                            : Resident.Evil.Afterlife.2010.BRRip.x264[HinDi]-[SnowDoN-IcTv]

 
http://img689.imageshack.us/img689/350/82066223.jpg
 
http://img833.imageshack.us/img833/9938/76205375.jpg
 
http://img72.imageshack.us/img72/3695/40626604.jpg
 
http://img814.imageshack.us/img814/8082/33182095.jpg
 
http://img573.imageshack.us/img573/1441/95248658.jpg